<svg width="36" height="36" viewBox="0 0 36 36" fill="none" xmlns="http://www.w3.org/2000/svg">
<path d="M30.6562 28.9688H29.873C28.3139 26.0393 27.4922 22.7557 27.4922 19.4328V14.5547C27.4922 10.5621 25.0142 7.1377 21.5156 5.73771V3.51562C21.5156 1.57711 19.9385 0 18 0C16.0615 0 14.4844 1.57711 14.4844 3.51562V5.73771C10.9858 7.1377 8.50781 10.5621 8.50781 14.5547V19.4328C8.50781 22.7557 7.68607 26.0392 6.12703 28.9688H5.34375C4.76128 28.9688 4.28906 29.441 4.28906 30.0234C4.28906 30.6059 4.76128 31.0781 5.34375 31.0781H12.1185C12.6183 33.8721 15.0645 36 18 36C20.9355 36 23.3816 33.8721 23.8815 31.0781H30.6562C31.2387 31.0781 31.7109 30.6059 31.7109 30.0234C31.7109 29.441 31.2387 28.9688 30.6562 28.9688ZM16.5938 3.51562C16.5938 2.74022 17.2246 2.10938 18 2.10938C18.7754 2.10938 19.4062 2.74022 19.4062 3.51562V5.16684C18.9473 5.09836 18.4778 5.0625 18 5.0625C17.5222 5.0625 17.0527 5.09836 16.5938 5.16684V3.51562ZM10.6172 14.5547C10.6172 10.4838 13.9291 7.17188 18 7.17188C22.0709 7.17188 25.3828 10.4838 25.3828 14.5547V19.4328C25.3828 20.9874 25.5458 22.5342 25.8645 24.0469H10.1355C10.4542 22.5343 10.6172 20.9874 10.6172 19.4328V14.5547ZM9.58282 26.1562H26.4172C26.719 27.1159 27.0851 28.056 27.5143 28.9688H8.48573C8.91485 28.056 9.28104 27.1159 9.58282 26.1562ZM18 33.8906C16.2333 33.8906 14.7406 32.6993 14.2802 31.0781H21.7197C21.2594 32.6993 19.7667 33.8906 18 33.8906Z" fill="black"/>
<path d="M33.8405 12.7796C33.4287 12.3677 32.7608 12.3677 32.349 12.7796C31.9371 13.1915 31.9371 13.8592 32.349 14.2711C33.3431 15.2652 33.8906 16.5895 33.8906 18C33.8906 19.4105 33.3431 20.7347 32.349 21.7289C31.9371 22.1408 31.9371 22.8085 32.349 23.2204C32.5549 23.4263 32.8248 23.5294 33.0947 23.5294C33.3645 23.5294 33.6345 23.4263 33.8404 23.2204C35.2331 21.8279 36 19.9739 36 18C36 16.0261 35.2331 14.1721 33.8405 12.7796Z" fill="url(#paint0_linear)"/>
<path d="M29.3658 15.7627C28.9539 16.1745 28.9539 16.8423 29.3658 17.2542C29.565 17.4534 29.6748 17.7183 29.6748 18C29.6748 18.2817 29.565 18.5465 29.3658 18.7458C28.9539 19.1577 28.9539 19.8255 29.3658 20.2373C29.5717 20.4433 29.8417 20.5463 30.1115 20.5463C30.3814 20.5463 30.6514 20.4434 30.8573 20.2373C32.091 19.0037 32.091 16.9964 30.8573 15.7627C30.4455 15.3508 29.7777 15.3508 29.3658 15.7627Z" fill="url(#paint1_linear)"/>
<path d="M3.65105 12.7796C3.23923 12.3678 2.57147 12.3677 2.15951 12.7796C0.766898 14.1721 0 16.0261 0 18C0 19.9739 0.766898 21.8279 2.15951 23.2204C2.36545 23.4264 2.63538 23.5294 2.90524 23.5294C3.1751 23.5294 3.4451 23.4265 3.65098 23.2204C4.06287 22.8085 4.06287 22.1408 3.65098 21.7289C2.6569 20.7347 2.10938 19.4105 2.10938 18C2.10938 16.5895 2.6569 15.2653 3.65105 14.2711C4.06294 13.8592 4.06294 13.1915 3.65105 12.7796Z" fill="url(#paint2_linear)"/>
<path d="M5.88837 20.5462C6.1583 20.5462 6.42823 20.4433 6.6341 20.2373C7.04599 19.8254 7.04599 19.1576 6.6341 18.7457C6.43491 18.5465 6.32515 18.2817 6.32515 17.9999C6.32515 17.7182 6.43491 17.4534 6.6341 17.2541C7.04599 16.8422 7.04599 16.1745 6.6341 15.7626C6.22228 15.3507 5.55445 15.3507 5.14256 15.7626C3.90886 16.9962 3.90886 19.0036 5.14256 20.2373C5.34851 20.4433 5.61844 20.5462 5.88837 20.5462Z" fill="url(#paint3_linear)"/>
<defs>
<linearGradient id="paint0_linear" x1="32.04" y1="12.4706" x2="36.2047" y2="12.5483" gradientUnits="userSpaceOnUse">
<stop stop-color="#F1D198"/>
<stop offset="1" stop-color="#D09F65"/>
</linearGradient>
<linearGradient id="paint1_linear" x1="29.0569" y1="15.4537" x2="31.9222" y2="15.5336" gradientUnits="userSpaceOnUse">
<stop stop-color="#F1D198"/>
<stop offset="1" stop-color="#D09F65"/>
</linearGradient>
<linearGradient id="paint2_linear" x1="0" y1="12.4707" x2="4.16462" y2="12.5483" gradientUnits="userSpaceOnUse">
<stop stop-color="#F1D198"/>
<stop offset="1" stop-color="#D09F65"/>
</linearGradient>
<linearGradient id="paint3_linear" x1="4.21729" y1="15.4537" x2="7.08266" y2="15.5335" gradientUnits="userSpaceOnUse">
<stop stop-color="#F1D198"/>
<stop offset="1" stop-color="#D09F65"/>
</linearGradient>
</defs>
</svg>
