<svg width="36" height="36" viewBox="0 0 36 36" fill="none" xmlns="http://www.w3.org/2000/svg">
<path d="M35.3672 22.1794V7.17188C35.3672 5.42721 33.9478 4.00781 32.2031 4.00781H28.0547V2.8125C28.0547 2.23003 27.5825 1.75781 27 1.75781C26.4175 1.75781 25.9453 2.23003 25.9453 2.8125V4.00781H19.0547V2.8125C19.0547 2.23003 18.5825 1.75781 18 1.75781C17.4175 1.75781 16.9453 2.23003 16.9453 2.8125V4.00781H10.0547V2.8125C10.0547 2.23003 9.58247 1.75781 9 1.75781C8.41753 1.75781 7.94531 2.23003 7.94531 2.8125V4.00781H3.16406C1.4194 4.00781 0 5.42721 0 7.17188V26.5781C0 28.3228 1.4194 29.7422 3.16406 29.7422H19.542C21.0484 32.4251 23.9212 34.2422 27.2109 34.2422C32.0572 34.2422 36 30.2994 36 25.4531C36 24.2966 35.775 23.1917 35.3672 22.1794ZM28.2656 18.857C31.1058 19.3094 33.3546 21.5582 33.8071 24.3984H28.2656V18.857ZM3.16406 27.6328C2.58251 27.6328 2.10938 27.1597 2.10938 26.5781V7.17188C2.10938 6.59032 2.58251 6.11719 3.16406 6.11719H7.94531V7.38281C7.94531 7.96528 8.41753 8.4375 9 8.4375C9.58247 8.4375 10.0547 7.96528 10.0547 7.38281V6.11719H16.9453V7.38281C16.9453 7.96528 17.4175 8.4375 18 8.4375C18.5825 8.4375 19.0547 7.96528 19.0547 7.38281V6.11719H25.9453V7.38281C25.9453 7.96528 26.4175 8.4375 27 8.4375C27.5825 8.4375 28.0547 7.96528 28.0547 7.38281V6.11719H32.2031C32.7847 6.11719 33.2578 6.59032 33.2578 7.17188V19.0808C31.6811 17.5839 29.5515 16.6641 27.2109 16.6641C22.3646 16.6641 18.4219 20.6068 18.4219 25.4531C18.4219 26.2053 18.517 26.9355 18.6956 27.6328H3.16406ZM27.2109 32.1328C23.5278 32.1328 20.5312 29.1363 20.5312 25.4531C20.5312 22.1288 22.9724 19.3642 26.1562 18.857V25.4531C26.1562 26.0356 26.6285 26.5078 27.2109 26.5078H33.8071C33.2999 29.6916 30.5352 32.1328 27.2109 32.1328Z" fill="black"/>
<path d="M7.3125 13.0078H5.625C5.04253 13.0078 4.57031 13.48 4.57031 14.0625C4.57031 14.645 5.04253 15.1172 5.625 15.1172H7.3125C7.89497 15.1172 8.36719 14.645 8.36719 14.0625C8.36719 13.48 7.89497 13.0078 7.3125 13.0078Z" fill="url(#paint0_linear)"/>
<path d="M13.5 13.0078H11.8125C11.23 13.0078 10.7578 13.48 10.7578 14.0625C10.7578 14.645 11.23 15.1172 11.8125 15.1172H13.5C14.0825 15.1172 14.5547 14.645 14.5547 14.0625C14.5547 13.48 14.0825 13.0078 13.5 13.0078Z" fill="url(#paint1_linear)"/>
<path d="M13.5 17.5078H11.8125C11.23 17.5078 10.7578 17.98 10.7578 18.5625C10.7578 19.145 11.23 19.6172 11.8125 19.6172H13.5C14.0825 19.6172 14.5547 19.145 14.5547 18.5625C14.5547 17.98 14.0825 17.5078 13.5 17.5078Z" fill="url(#paint2_linear)"/>
<path d="M7.3125 17.5078H5.625C5.04253 17.5078 4.57031 17.98 4.57031 18.5625C4.57031 19.145 5.04253 19.6172 5.625 19.6172H7.3125C7.89497 19.6172 8.36719 19.145 8.36719 18.5625C8.36719 17.98 7.89497 17.5078 7.3125 17.5078Z" fill="url(#paint3_linear)"/>
<path d="M7.3125 22.0078H5.625C5.04253 22.0078 4.57031 22.48 4.57031 23.0625C4.57031 23.645 5.04253 24.1172 5.625 24.1172H7.3125C7.89497 24.1172 8.36719 23.645 8.36719 23.0625C8.36719 22.48 7.89497 22.0078 7.3125 22.0078Z" fill="url(#paint4_linear)"/>
<path d="M13.5 22.0078H11.8125C11.23 22.0078 10.7578 22.48 10.7578 23.0625C10.7578 23.645 11.23 24.1172 11.8125 24.1172H13.5C14.0825 24.1172 14.5547 23.645 14.5547 23.0625C14.5547 22.48 14.0825 22.0078 13.5 22.0078Z" fill="url(#paint5_linear)"/>
<defs>
<linearGradient id="paint0_linear" x1="4.57031" y1="13.0078" x2="8.53005" y2="13.3788" gradientUnits="userSpaceOnUse">
<stop stop-color="#F1D198"/>
<stop offset="1" stop-color="#D09F65"/>
</linearGradient>
<linearGradient id="paint1_linear" x1="10.7578" y1="13.0078" x2="14.7175" y2="13.3788" gradientUnits="userSpaceOnUse">
<stop stop-color="#F1D198"/>
<stop offset="1" stop-color="#D09F65"/>
</linearGradient>
<linearGradient id="paint2_linear" x1="10.7578" y1="17.5078" x2="14.7175" y2="17.8788" gradientUnits="userSpaceOnUse">
<stop stop-color="#F1D198"/>
<stop offset="1" stop-color="#D09F65"/>
</linearGradient>
<linearGradient id="paint3_linear" x1="4.57031" y1="17.5078" x2="8.53005" y2="17.8788" gradientUnits="userSpaceOnUse">
<stop stop-color="#F1D198"/>
<stop offset="1" stop-color="#D09F65"/>
</linearGradient>
<linearGradient id="paint4_linear" x1="4.57031" y1="22.0078" x2="8.53005" y2="22.3788" gradientUnits="userSpaceOnUse">
<stop stop-color="#F1D198"/>
<stop offset="1" stop-color="#D09F65"/>
</linearGradient>
<linearGradient id="paint5_linear" x1="10.7578" y1="22.0078" x2="14.7175" y2="22.3788" gradientUnits="userSpaceOnUse">
<stop stop-color="#F1D198"/>
<stop offset="1" stop-color="#D09F65"/>
</linearGradient>
</defs>
</svg>
