<svg width="36" height="36" viewBox="0 0 36 36" fill="none" xmlns="http://www.w3.org/2000/svg">
<path d="M20.1797 0C19.5972 0 19.125 0.472219 19.125 1.05469V15.8906C19.125 16.4731 19.5972 16.9453 20.1797 16.9453H34.9453C35.5278 16.9453 36 16.4731 36 15.8906C36 7.16309 28.9176 0 20.1797 0ZM21.2344 14.8359V2.14973C27.9574 2.66618 33.3397 8.07771 33.8509 14.8359H21.2344Z" fill="url(#paint0_linear)"/>
<path d="M22.1338 33.6371L17.0156 19.919V5.34375C17.0156 4.76128 16.5434 4.28906 15.9609 4.28906C7.27566 4.28906 0 11.3306 0 20.1094C0 28.8224 7.20513 36 15.9609 36C17.8717 36 19.7411 35.6612 21.5171 34.993C22.0612 34.7883 22.3371 34.1819 22.1338 33.6371ZM15.9609 33.8906C8.32317 33.8906 2.10938 27.7084 2.10938 20.1094C2.10938 12.9003 7.75927 6.97282 14.9062 6.43781V20.1094C14.9062 20.2352 14.9288 20.3601 14.9728 20.4781L19.7757 33.3511C18.5413 33.7095 17.2626 33.8906 15.9609 33.8906Z" fill="#121216"/>
<path d="M34.9453 19.0547H20.1797C19.8341 19.0547 19.5104 19.224 19.3134 19.5079C19.1162 19.7918 19.0708 20.1542 19.1916 20.4781L24.3764 34.3746C24.5811 34.9232 25.192 35.1977 25.7359 34.993C31.8752 32.6833 36 26.702 36 20.1094C36 19.5269 35.5278 19.0547 34.9453 19.0547ZM25.9684 32.6074L21.6989 21.157H33.8499C33.4685 26.0991 30.4319 30.515 25.9684 32.6074Z" fill="#121216"/>
<defs>
<linearGradient id="paint0_linear" x1="19.125" y1="0" x2="36.8307" y2="0.917696" gradientUnits="userSpaceOnUse">
<stop stop-color="#F1D198"/>
<stop offset="1" stop-color="#D09F65"/>
</linearGradient>
</defs>
</svg>
