<svg width="36" height="33" viewBox="0 0 36 33" fill="none" xmlns="http://www.w3.org/2000/svg">
<path d="M33.6762 26.4485H34.8765C35.1932 26.4485 35.45 26.1917 35.45 25.875V22.2741C35.45 21.9574 35.1932 21.7006 34.8765 21.7006H31.8491V21.0738C31.8491 20.0955 31.0535 19.3 30.0753 19.3C29.097 19.3 28.3015 20.0956 28.3015 21.0738V21.7006H25.2741C24.9574 21.7006 24.7006 21.9574 24.7006 22.2741V25.3015H24.0738C23.0956 25.3015 22.3 26.097 22.3 27.0753C22.3 28.0535 23.0956 28.8491 24.0738 28.8491H24.7006V31.8765C24.7006 32.1932 24.9574 32.45 25.2741 32.45H28.875C29.1917 32.45 29.4485 32.1932 29.4485 31.8765V30.6762C29.4485 30.3307 29.7299 30.0494 30.0753 30.0494C30.4207 30.0494 30.7021 30.3308 30.7021 30.6762V31.8765C30.7021 32.1932 30.9588 32.45 31.2756 32.45H34.8765C35.1932 32.45 35.45 32.1932 35.45 31.8765V28.2756C35.45 27.9588 35.1932 27.7021 34.8765 27.7021H33.6762C33.3307 27.7021 33.0494 27.4207 33.0494 27.0753C33.0494 26.7299 33.3307 26.4485 33.6762 26.4485ZM33.6762 28.8491H34.3029V31.3029H31.8491V30.6762C31.8491 29.6979 31.0535 28.9023 30.0753 28.9023C29.097 28.9023 28.3015 29.6979 28.3015 30.6762V31.3029H25.8477V28.2756C25.8477 27.9588 25.5909 27.7021 25.2741 27.7021H24.0738C23.7284 27.7021 23.4471 27.4207 23.4471 27.0753C23.4471 26.7299 23.7284 26.4485 24.0738 26.4485H25.2741C25.5909 26.4485 25.8477 26.1917 25.8477 25.875V22.8477H28.875C29.1917 22.8477 29.4485 22.5909 29.4485 22.2741V21.0738C29.4485 20.7284 29.7299 20.4471 30.0753 20.4471C30.4207 20.4471 30.7021 20.7284 30.7021 21.0738V22.2741C30.7021 22.5909 30.9588 22.8477 31.2756 22.8477H34.3029V25.3015H33.6762C32.6979 25.3015 31.9023 26.097 31.9023 27.0753C31.9023 28.0535 32.6979 28.8491 33.6762 28.8491Z" fill="url(#paint0_linear)" stroke="url(#paint1_linear)" stroke-width="0.4"/>
<g clip-path="url(#clip0)">
<path d="M24.3678 2.45853C24.0655 2.08881 23.6127 1.88525 23.0927 1.88525C22.81 1.88525 22.5105 1.94473 22.2027 2.06237L1.2523 10.0598C0.140481 10.4841 -0.00925947 11.1208 0.000370723 11.4626C0.0100009 11.8044 0.195618 12.4316 1.32972 12.7925C1.33651 12.7946 1.34331 12.7967 1.35011 12.7985L5.69579 14.0422L8.04593 20.7625C8.36637 21.6787 9.08562 22.2478 9.92326 22.2478C10.4514 22.2478 10.9709 22.0265 11.4256 21.6081L14.1135 19.1331L18.0122 22.2724C18.0126 22.2728 18.0132 22.273 18.0136 22.2733L18.0506 22.3032C18.054 22.3058 18.0576 22.3086 18.061 22.3113C18.4943 22.6474 18.9673 22.8249 19.4294 22.8251H19.4296C20.3324 22.8251 21.0512 22.1568 21.2606 21.1228L24.6933 4.1729C24.8312 3.49255 24.7156 2.88377 24.3678 2.45853ZM7.14957 13.8059L15.5337 9.52276L10.3132 15.0699C10.2276 15.1608 10.167 15.272 10.1372 15.393L9.13056 19.4706L7.14957 13.8059ZM10.4431 20.5412C10.4084 20.5731 10.3734 20.6016 10.3385 20.6279L11.2724 16.8453L12.9713 18.2134L10.4431 20.5412ZM23.272 3.88494L19.8393 20.835C19.8063 20.9972 19.7007 21.3747 19.4294 21.3747C19.2953 21.3747 19.1269 21.3016 18.9545 21.1689L14.5367 17.6118C14.5361 17.6112 14.5354 17.6106 14.5346 17.6102L11.9059 15.4935L19.4555 7.47153C19.6972 7.21472 19.7191 6.82139 19.5074 6.53929C19.2955 6.25718 18.9116 6.16843 18.5976 6.32893L6.18069 12.6724L1.77592 11.4122L22.7199 3.41721C22.8968 3.34961 23.0203 3.33545 23.0927 3.33545C23.137 3.33545 23.216 3.34074 23.2452 3.3768C23.2837 3.42382 23.3328 3.58414 23.272 3.88494Z" fill="black"/>
</g>
<defs>
<linearGradient id="paint0_linear" x1="22.5" y1="19.5" x2="35.8774" y2="20.1962" gradientUnits="userSpaceOnUse">
<stop stop-color="#F1D198"/>
<stop offset="1" stop-color="#D09F65"/>
</linearGradient>
<linearGradient id="paint1_linear" x1="22.5" y1="19.5" x2="35.8774" y2="20.1962" gradientUnits="userSpaceOnUse">
<stop stop-color="#F1D198"/>
<stop offset="1" stop-color="#D09F65"/>
</linearGradient>
<clipPath id="clip0">
<rect width="24.75" height="24.75" fill="white"/>
</clipPath>
</defs>
</svg>
