<svg width="38" height="38" viewBox="0 0 38 38" fill="none" xmlns="http://www.w3.org/2000/svg">
<g clip-path="url(#clip0)">
<path d="M20.538 24.7211C23.1344 22.3286 23.347 18.2318 21.0129 15.5705C18.8722 13.1297 15.2889 12.715 12.6712 14.6052C9.81746 12.5409 5.87149 13.2387 3.85752 16.1637C2.00953 18.8476 2.41243 22.5242 4.79527 24.7211C1.83454 26.3208 -0.0133398 29.4746 7.25211e-05 32.9051V35.6873C7.25211e-05 36.1995 0.405146 36.6147 0.904847 36.6147H24.4285C24.9282 36.6147 25.3333 36.1995 25.3333 35.6873V32.9051C25.3466 29.4746 23.4988 26.3208 20.538 24.7211ZM16.2856 15.285C18.7805 15.2822 20.8053 17.353 20.8081 19.9103C20.8101 21.7341 19.7674 23.3892 18.1449 24.1377C18.0753 24.1702 18.0056 24.1998 17.935 24.2305C17.7117 24.3228 17.4815 24.3963 17.2465 24.4503C17.2013 24.4605 17.156 24.466 17.1099 24.4753C16.8474 24.5269 16.581 24.5545 16.3137 24.5579C16.1933 24.5579 16.0721 24.5486 15.9518 24.5375C15.9065 24.5375 15.8613 24.5375 15.8161 24.5282C15.3018 24.4662 14.8016 24.315 14.3368 24.0812C14.3196 24.0729 14.2997 24.0738 14.2825 24.0664C14.192 24.0219 14.1016 23.9829 14.021 23.9328C14.0283 23.9235 14.0328 23.9134 14.04 23.9041C14.4549 23.3577 14.782 22.7469 15.009 22.0948L15.037 22.0168C15.1402 21.7054 15.2204 21.3864 15.2768 21.0626C15.285 21.0153 15.2913 20.9698 15.2985 20.9188C15.3509 20.5892 15.3784 20.2559 15.3809 19.9219C15.3783 19.5885 15.3508 19.2559 15.2985 18.9268C15.2913 18.8786 15.285 18.834 15.2768 18.7831C15.2204 18.4593 15.1402 18.1402 15.037 17.8288L15.009 17.7508C14.782 17.0987 14.4548 16.488 14.04 15.9415C14.0327 15.9322 14.0282 15.9221 14.021 15.9128C14.7084 15.5018 15.4899 15.2851 16.2856 15.285ZM4.52384 19.9219C4.51742 17.3677 6.53229 15.2918 9.02423 15.2852C10.1923 15.2821 11.3161 15.7435 12.1591 16.5722C12.2116 16.6242 12.2632 16.6761 12.3138 16.7299C12.4692 16.8968 12.6125 17.075 12.7427 17.2631C12.7825 17.3206 12.8187 17.3818 12.8557 17.4412C12.9822 17.6406 13.0932 17.85 13.1878 18.0671C13.2104 18.12 13.2276 18.1738 13.2475 18.2266C13.3428 18.4669 13.4179 18.7151 13.4719 18.9685C13.4782 18.9963 13.48 19.0242 13.4854 19.0529C13.6001 19.6287 13.6001 20.2224 13.4854 20.7982C13.48 20.8269 13.4782 20.8548 13.4719 20.8826C13.418 21.136 13.3429 21.3842 13.2475 21.6245C13.2276 21.6773 13.2104 21.7311 13.1878 21.784C13.0931 22.0008 12.9821 22.2098 12.8557 22.409C12.8186 22.4683 12.7825 22.5296 12.7427 22.5871C12.6125 22.7753 12.4692 22.9534 12.3138 23.1203C12.2631 23.1741 12.2115 23.226 12.1591 23.2779C11.7928 23.6358 11.3704 23.9279 10.9096 24.1422C10.8364 24.1765 10.7622 24.2081 10.6871 24.235C10.469 24.3237 10.2446 24.395 10.0158 24.4483C9.9588 24.4613 9.89995 24.4687 9.84206 24.4789C9.5964 24.5258 9.34729 24.5515 9.09744 24.5559H8.99793C8.74808 24.5515 8.49897 24.5258 8.25331 24.4789C8.19542 24.4687 8.13658 24.4613 8.07959 24.4483C7.85078 24.395 7.62632 24.3237 7.40828 24.235C7.33316 24.2044 7.259 24.1729 7.18573 24.1422C5.56703 23.3931 4.52591 21.7423 4.52384 19.9219ZM16.2856 34.7599H1.80957V32.9052C1.79632 29.7626 3.72801 26.9569 6.62104 25.9165C8.17411 26.5793 9.92105 26.5793 11.4742 25.9165C11.7762 26.0296 12.0706 26.1631 12.3554 26.3162C12.5436 26.4154 12.7173 26.5286 12.8983 26.6426C13.0159 26.7177 13.1353 26.791 13.2484 26.8736C13.423 27.0006 13.5877 27.1388 13.7497 27.2807C13.8537 27.3734 13.9568 27.4661 14.0545 27.5589C14.2038 27.7035 14.344 27.8565 14.4788 28.0133C14.5757 28.1264 14.6698 28.2414 14.7593 28.3602C14.8779 28.5159 14.991 28.6755 15.0959 28.8396C15.1864 28.9787 15.2669 29.1233 15.3465 29.268C15.437 29.4275 15.5202 29.5871 15.5962 29.7531C15.6722 29.9191 15.7392 30.1008 15.8043 30.278C15.8613 30.4319 15.9219 30.5849 15.9689 30.7416C16.0323 30.9568 16.0766 31.1793 16.1209 31.4019C16.1481 31.5336 16.1834 31.6625 16.2033 31.796C16.2569 32.1632 16.2844 32.5339 16.2856 32.9052V34.7599H16.2856ZM23.5237 34.7599H18.0952V32.9052C18.0952 32.6149 18.0789 32.3274 18.0536 32.0427C18.0463 31.9593 18.0337 31.8767 18.0246 31.7933C18.0002 31.5883 17.9721 31.3852 17.9341 31.184C17.9179 31.0981 17.9007 31.0118 17.8826 30.9252C17.8391 30.7187 17.7888 30.5141 17.7315 30.3113C17.7125 30.2445 17.6953 30.1768 17.6754 30.111C17.422 29.2809 17.0549 28.4919 16.5852 27.7675L16.5499 27.7147C16.3943 27.4779 16.2281 27.2488 16.0513 27.0275L16.045 27.0191C15.8641 26.7892 15.6677 26.5656 15.4614 26.3542C15.4732 26.3542 15.4859 26.3542 15.4986 26.3542C15.7539 26.3886 16.011 26.4072 16.2685 26.4098H16.3183C16.5566 26.4077 16.7946 26.3919 17.0313 26.3626C17.1054 26.3533 17.1788 26.3394 17.2529 26.3273C17.4454 26.297 17.6354 26.2577 17.8229 26.2095C17.8763 26.1956 17.9306 26.1827 17.9849 26.1669C18.231 26.0983 18.4728 26.014 18.7087 25.9147C21.6038 26.954 23.5373 29.761 23.5238 32.9052V34.7599H23.5237Z" fill="black"/>
</g>
<g clip-path="url(#clip1)">
<path d="M37.2619 8.52176C37.1148 8.30504 33.6097 3.21539 29.1332 3.21539C24.6566 3.21539 21.1513 8.30504 21.0044 8.52155C20.8651 8.72715 20.8651 9.006 21.0044 9.21159C21.1513 9.42831 24.6566 14.518 29.1332 14.518C33.6097 14.518 37.1148 9.42827 37.2619 9.21177C37.4014 9.0062 37.4014 8.72714 37.2619 8.52176ZM29.1332 13.3487C25.8357 13.3487 22.9797 9.97063 22.1343 8.86628C22.9786 7.76095 25.8286 4.38462 29.1332 4.38462C32.4305 4.38462 35.2863 7.76213 36.132 8.86707C35.2877 9.97236 32.4377 13.3487 29.1332 13.3487Z" fill="url(#paint0_linear)"/>
<path d="M29.1331 5.35901C27.3372 5.35901 25.876 6.9326 25.876 8.86672C25.876 10.8008 27.3372 12.3744 29.1331 12.3744C30.9291 12.3744 32.3903 10.8008 32.3903 8.86672C32.3903 6.9326 30.9291 5.35901 29.1331 5.35901ZM29.1331 11.2052C27.9358 11.2052 26.9617 10.1562 26.9617 8.86672C26.9617 7.57727 27.9358 6.52827 29.1331 6.52827C30.3305 6.52827 31.3045 7.57727 31.3045 8.86672C31.3045 10.1562 30.3305 11.2052 29.1331 11.2052Z" fill="url(#paint1_linear)"/>
</g>
<defs>
<linearGradient id="paint0_linear" x1="20.8999" y1="3.21539" x2="38.1245" y2="4.52147" gradientUnits="userSpaceOnUse">
<stop stop-color="#F1D198"/>
<stop offset="1" stop-color="#D09F65"/>
</linearGradient>
<linearGradient id="paint1_linear" x1="25.876" y1="5.35901" x2="32.7133" y2="5.68945" gradientUnits="userSpaceOnUse">
<stop stop-color="#F1D198"/>
<stop offset="1" stop-color="#D09F65"/>
</linearGradient>
<clipPath id="clip0">
<rect width="25.3333" height="25.9667" fill="white" transform="translate(0 12.0333)"/>
</clipPath>
<clipPath id="clip1">
<rect width="16.4667" height="17.7333" fill="white" transform="translate(20.8999)"/>
</clipPath>
</defs>
</svg>
